<svg xmlns="http://www.w3.org/2000/svg" xmlns:xlink="http://www.w3.org/1999/xlink" width="538" zoomAndPan="magnify" viewBox="0 0 403.5 74.999997" height="100" preserveAspectRatio="xMidYMid meet" version="1.0"><defs><g/></defs><g fill="#ffffff" fill-opacity="1"><g transform="translate(21.56214, 55.128149)"><g><path d="M 20.359375 -46.96875 C 22.859375 -46.96875 25.300781 -46.601562 27.6875 -45.875 C 30.070312 -45.15625 31.84375 -44.441406 33 -43.734375 L 34.671875 -42.609375 L 30.421875 -34.21875 C 30.085938 -34.445312 29.617188 -34.738281 29.015625 -35.09375 C 28.421875 -35.445312 27.300781 -35.921875 25.65625 -36.515625 C 24.019531 -37.109375 22.492188 -37.40625 21.078125 -37.40625 C 19.328125 -37.40625 17.976562 -37.03125 17.03125 -36.28125 C 16.082031 -35.539062 15.609375 -34.539062 15.609375 -33.28125 C 15.609375 -32.644531 15.828125 -32.054688 16.265625 -31.515625 C 16.710938 -30.972656 17.476562 -30.394531 18.5625 -29.78125 C 19.644531 -29.164062 20.59375 -28.671875 21.40625 -28.296875 C 22.226562 -27.921875 23.5 -27.363281 25.21875 -26.625 C 28.195312 -25.351562 30.738281 -23.625 32.84375 -21.4375 C 34.957031 -19.257812 36.015625 -16.789062 36.015625 -14.03125 C 36.015625 -11.382812 35.535156 -9.070312 34.578125 -7.09375 C 33.628906 -5.125 32.328125 -3.578125 30.671875 -2.453125 C 29.015625 -1.335938 27.175781 -0.507812 25.15625 0.03125 C 23.144531 0.570312 20.96875 0.84375 18.625 0.84375 C 16.613281 0.84375 14.632812 0.632812 12.6875 0.21875 C 10.75 -0.1875 9.128906 -0.695312 7.828125 -1.3125 C 6.523438 -1.925781 5.347656 -2.53125 4.296875 -3.125 C 3.253906 -3.726562 2.492188 -4.234375 2.015625 -4.640625 L 1.28125 -5.25 L 6.546875 -14.09375 C 6.992188 -13.71875 7.609375 -13.238281 8.390625 -12.65625 C 9.171875 -12.082031 10.554688 -11.3125 12.546875 -10.34375 C 14.546875 -9.375 16.3125 -8.890625 17.84375 -8.890625 C 22.28125 -8.890625 24.5 -10.398438 24.5 -13.421875 C 24.5 -14.054688 24.335938 -14.644531 24.015625 -15.1875 C 23.703125 -15.726562 23.144531 -16.265625 22.34375 -16.796875 C 21.539062 -17.335938 20.832031 -17.765625 20.21875 -18.078125 C 19.601562 -18.398438 18.59375 -18.882812 17.1875 -19.53125 C 15.789062 -20.1875 14.757812 -20.6875 14.09375 -21.03125 C 11.289062 -22.40625 9.125 -24.125 7.59375 -26.1875 C 6.070312 -28.257812 5.3125 -30.488281 5.3125 -32.875 C 5.3125 -37.019531 6.835938 -40.40625 9.890625 -43.03125 C 12.953125 -45.65625 16.441406 -46.96875 20.359375 -46.96875 Z M 20.359375 -46.96875 "/></g></g></g><g fill="#ffffff" fill-opacity="1"><g transform="translate(59.142325, 55.128149)"><g><path d="M 3.359375 -46.140625 L 20.1875 -46.140625 C 24.882812 -46.140625 28.6875 -44.925781 31.59375 -42.5 C 34.5 -40.070312 35.953125 -36.546875 35.953125 -31.921875 C 35.953125 -27.304688 34.476562 -23.679688 31.53125 -21.046875 C 28.59375 -18.421875 24.8125 -17.109375 20.1875 -17.109375 L 13.875 -17.109375 L 13.875 0 L 3.359375 0 Z M 13.875 -25.5 L 16.828125 -25.5 C 19.179688 -25.5 21.113281 -25.972656 22.625 -26.921875 C 24.132812 -27.878906 24.890625 -29.4375 24.890625 -31.59375 C 24.890625 -33.789062 24.132812 -35.363281 22.625 -36.3125 C 21.113281 -37.269531 19.179688 -37.75 16.828125 -37.75 L 13.875 -37.75 Z M 13.875 -25.5 "/></g></g></g><g fill="#ffffff" fill-opacity="1"><g transform="translate(96.386962, 55.128149)"><g><path d="M 45.359375 0 L 30.875 0 L 13.875 -19.578125 L 13.875 0 L 3.359375 0 L 3.359375 -46.140625 L 13.875 -46.140625 L 13.875 -27.296875 L 29.6875 -46.140625 L 42.4375 -46.140625 L 23.875 -24.265625 Z M 45.359375 0 "/></g></g></g><g fill="#ffffff" fill-opacity="1"><g transform="translate(140.398277, 55.128149)"><g/></g></g><g fill="#ffffff" fill-opacity="1"><g transform="translate(155.66522, 55.128149)"><g><path d="M 3.359375 -46.140625 L 17.671875 -46.140625 C 21.992188 -46.140625 25.441406 -45.210938 28.015625 -43.359375 C 30.585938 -41.515625 31.875 -38.523438 31.875 -34.390625 C 31.875 -29.765625 29.953125 -26.46875 26.109375 -24.5 C 32.671875 -23.34375 35.953125 -19.460938 35.953125 -12.859375 C 35.953125 -8.984375 34.609375 -5.867188 31.921875 -3.515625 C 29.242188 -1.171875 25.554688 0 20.859375 0 L 3.359375 0 Z M 13.875 -28.078125 L 14.703125 -28.078125 C 17.054688 -28.078125 18.8125 -28.484375 19.96875 -29.296875 C 21.125 -30.117188 21.703125 -31.460938 21.703125 -33.328125 C 21.703125 -36.460938 19.367188 -38.03125 14.703125 -38.03125 L 13.875 -38.03125 Z M 13.875 -8.109375 L 17.171875 -8.109375 C 22.316406 -8.109375 24.890625 -9.820312 24.890625 -13.25 C 24.890625 -15.300781 24.242188 -16.773438 22.953125 -17.671875 C 21.671875 -18.566406 19.742188 -19.015625 17.171875 -19.015625 L 13.875 -19.015625 Z M 13.875 -8.109375 "/></g></g></g><g fill="#ffffff" fill-opacity="1"><g transform="translate(192.909857, 55.128149)"><g><path d="M 13.875 -46.140625 L 13.875 -9.234375 L 29.75 -9.234375 L 29.75 0 L 3.359375 0 L 3.359375 -46.140625 Z M 13.875 -46.140625 "/></g></g></g><g fill="#ffffff" fill-opacity="1"><g transform="translate(224.506292, 55.128149)"><g><path d="M 0.453125 -36.90625 L 0.453125 -46.140625 L 32.875 -46.140625 L 32.875 -36.90625 L 21.921875 -36.90625 L 21.921875 0 L 11.40625 0 L 11.40625 -36.90625 Z M 0.453125 -36.90625 "/></g></g></g><g fill="#ffffff" fill-opacity="1"><g transform="translate(257.836327, 55.128149)"><g><path d="M 3.359375 -20.46875 L 21.359375 -20.46875 L 21.359375 -11.90625 L 3.359375 -11.90625 Z M 3.359375 -20.46875 "/></g></g></g><g fill="#ffffff" fill-opacity="1"><g transform="translate(282.554254, 55.128149)"><g><path d="M 3.359375 -46.140625 L 16.71875 -46.140625 C 23.132812 -46.140625 28.613281 -43.945312 33.15625 -39.5625 C 37.707031 -35.1875 39.984375 -29.695312 39.984375 -23.09375 C 39.984375 -16.457031 37.71875 -10.945312 33.1875 -6.5625 C 28.65625 -2.1875 23.164062 0 16.71875 0 L 3.359375 0 Z M 13.875 -9.390625 L 15.484375 -9.390625 C 19.328125 -9.390625 22.46875 -10.6875 24.90625 -13.28125 C 27.351562 -15.875 28.59375 -19.128906 28.625 -23.046875 C 28.625 -26.953125 27.40625 -30.207031 24.96875 -32.8125 C 22.53125 -35.425781 19.367188 -36.734375 15.484375 -36.734375 L 13.875 -36.734375 Z M 13.875 -9.390625 "/></g></g></g><g fill="#ffffff" fill-opacity="1"><g transform="translate(323.825346, 55.128149)"><g><path d="M 3.359375 -46.140625 L 16.71875 -46.140625 C 23.132812 -46.140625 28.613281 -43.945312 33.15625 -39.5625 C 37.707031 -35.1875 39.984375 -29.695312 39.984375 -23.09375 C 39.984375 -16.457031 37.71875 -10.945312 33.1875 -6.5625 C 28.65625 -2.1875 23.164062 0 16.71875 0 L 3.359375 0 Z M 13.875 -9.390625 L 15.484375 -9.390625 C 19.328125 -9.390625 22.46875 -10.6875 24.90625 -13.28125 C 27.351562 -15.875 28.59375 -19.128906 28.625 -23.046875 C 28.625 -26.953125 27.40625 -30.207031 24.96875 -32.8125 C 22.53125 -35.425781 19.367188 -36.734375 15.484375 -36.734375 L 13.875 -36.734375 Z M 13.875 -9.390625 "/></g></g></g></svg>