<svg xmlns="http://www.w3.org/2000/svg" xmlns:xlink="http://www.w3.org/1999/xlink" width="400" zoomAndPan="magnify" viewBox="0 0 300 74.999997" height="100" preserveAspectRatio="xMidYMid meet" version="1.0"><defs><g/></defs><g fill="#ffffff" fill-opacity="1"><g transform="translate(86.415985, 43.910272)"><g><path d="M 6 -13.140625 C 7.6875 -13.140625 9.207031 -12.691406 10.5625 -11.796875 L 9.65625 -9.859375 C 8.320312 -10.671875 7.046875 -11.078125 5.828125 -11.078125 C 5.171875 -11.078125 4.648438 -10.957031 4.265625 -10.71875 C 3.890625 -10.476562 3.703125 -10.140625 3.703125 -9.703125 C 3.703125 -9.273438 3.875 -8.90625 4.21875 -8.59375 C 4.570312 -8.289062 5.007812 -8.066406 5.53125 -7.921875 C 6.050781 -7.785156 6.613281 -7.609375 7.21875 -7.390625 C 7.832031 -7.171875 8.398438 -6.941406 8.921875 -6.703125 C 9.453125 -6.460938 9.882812 -6.082031 10.21875 -5.5625 C 10.5625 -5.050781 10.734375 -4.425781 10.734375 -3.6875 C 10.734375 -2.539062 10.273438 -1.625 9.359375 -0.9375 C 8.453125 -0.257812 7.269531 0.078125 5.8125 0.078125 C 4.820312 0.078125 3.859375 -0.109375 2.921875 -0.484375 C 1.992188 -0.859375 1.179688 -1.363281 0.484375 -2 L 1.4375 -3.890625 C 2.09375 -3.285156 2.816406 -2.816406 3.609375 -2.484375 C 4.398438 -2.160156 5.148438 -2 5.859375 -2 C 6.628906 -2 7.226562 -2.132812 7.65625 -2.40625 C 8.082031 -2.6875 8.296875 -3.078125 8.296875 -3.578125 C 8.296875 -4.023438 8.117188 -4.398438 7.765625 -4.703125 C 7.421875 -5.003906 6.988281 -5.226562 6.46875 -5.375 C 5.945312 -5.519531 5.378906 -5.691406 4.765625 -5.890625 C 4.160156 -6.097656 3.597656 -6.316406 3.078125 -6.546875 C 2.554688 -6.773438 2.117188 -7.144531 1.765625 -7.65625 C 1.421875 -8.164062 1.25 -8.78125 1.25 -9.5 C 1.25 -10.613281 1.679688 -11.5 2.546875 -12.15625 C 3.421875 -12.8125 4.570312 -13.140625 6 -13.140625 Z M 6 -13.140625 "/></g></g></g><g fill="#ffffff" fill-opacity="1"><g transform="translate(99.69345, 43.910272)"><g><path d="M 1.71875 -13.046875 L 6.921875 -13.046875 C 8.554688 -13.046875 9.820312 -12.65625 10.71875 -11.875 C 11.625 -11.101562 12.078125 -10.007812 12.078125 -8.59375 C 12.078125 -7.113281 11.625 -5.96875 10.71875 -5.15625 C 9.820312 -4.34375 8.554688 -3.9375 6.921875 -3.9375 L 3.921875 -3.9375 L 3.921875 0 L 1.71875 0 Z M 3.921875 -11.078125 L 3.921875 -5.90625 L 6.828125 -5.90625 C 8.921875 -5.90625 9.96875 -6.78125 9.96875 -8.53125 C 9.96875 -10.226562 8.921875 -11.078125 6.828125 -11.078125 Z M 3.921875 -11.078125 "/></g></g></g><g fill="#ffffff" fill-opacity="1"><g transform="translate(113.92196, 43.910272)"><g><path d="M 10.421875 0 L 6.125 -5.765625 L 3.921875 -3.3125 L 3.921875 0 L 1.71875 0 L 1.71875 -13.046875 L 3.921875 -13.046875 L 3.921875 -6.296875 L 10.140625 -13.046875 L 12.734375 -13.046875 L 7.6875 -7.46875 L 13.0625 0 Z M 10.421875 0 "/></g></g></g><g fill="#ffffff" fill-opacity="1"><g transform="translate(128.989633, 43.910272)"><g/></g></g><g fill="#ffffff" fill-opacity="1"><g transform="translate(135.47917, 43.910272)"><g><path d="M 1.71875 -13.046875 L 7.375 -13.046875 C 8.726562 -13.046875 9.796875 -12.753906 10.578125 -12.171875 C 11.367188 -11.597656 11.765625 -10.800781 11.765625 -9.78125 C 11.765625 -9.050781 11.554688 -8.425781 11.140625 -7.90625 C 10.734375 -7.394531 10.175781 -7.050781 9.46875 -6.875 C 10.34375 -6.726562 11.023438 -6.363281 11.515625 -5.78125 C 12.015625 -5.195312 12.265625 -4.460938 12.265625 -3.578125 C 12.265625 -2.460938 11.84375 -1.585938 11 -0.953125 C 10.15625 -0.316406 8.992188 0 7.515625 0 L 1.71875 0 Z M 3.921875 -11.09375 L 3.921875 -7.640625 L 7.265625 -7.640625 C 7.960938 -7.640625 8.507812 -7.796875 8.90625 -8.109375 C 9.300781 -8.421875 9.5 -8.847656 9.5 -9.390625 C 9.5 -9.941406 9.300781 -10.363281 8.90625 -10.65625 C 8.519531 -10.945312 7.972656 -11.09375 7.265625 -11.09375 Z M 3.921875 -5.703125 L 3.921875 -1.953125 L 7.265625 -1.953125 C 8.140625 -1.953125 8.816406 -2.113281 9.296875 -2.4375 C 9.773438 -2.769531 10.015625 -3.242188 10.015625 -3.859375 C 10.015625 -4.429688 9.769531 -4.878906 9.28125 -5.203125 C 8.800781 -5.535156 8.128906 -5.703125 7.265625 -5.703125 Z M 3.921875 -5.703125 "/></g></g></g><g fill="#ffffff" fill-opacity="1"><g transform="translate(150.323064, 43.910272)"><g><path d="M 3.921875 -2 L 9.5625 -2 L 9.5625 0 L 1.71875 0 L 1.71875 -13.046875 L 3.921875 -13.046875 Z M 3.921875 -2 "/></g></g></g><g fill="#ffffff" fill-opacity="1"><g transform="translate(161.959494, 43.910272)"><g><path d="M 10.625 -11.078125 L 6.484375 -11.078125 L 6.484375 0 L 4.28125 0 L 4.28125 -11.078125 L 0.171875 -11.078125 L 0.171875 -13.046875 L 10.625 -13.046875 Z M 10.625 -11.078125 "/></g></g></g><g fill="#ffffff" fill-opacity="1"><g transform="translate(174.435089, 43.910272)"><g><path d="M 5.71875 -4.9375 L 1.140625 -4.9375 L 1.140625 -6.40625 L 5.71875 -6.40625 Z M 5.71875 -4.9375 "/></g></g></g><g fill="#ffffff" fill-opacity="1"><g transform="translate(182.975931, 43.910272)"><g><path d="M 1.71875 -13.046875 L 7.0625 -13.046875 C 9.007812 -13.046875 10.617188 -12.429688 11.890625 -11.203125 C 13.171875 -9.972656 13.8125 -8.410156 13.8125 -6.515625 C 13.8125 -4.628906 13.171875 -3.070312 11.890625 -1.84375 C 10.609375 -0.613281 8.984375 0 7.015625 0 L 1.71875 0 Z M 3.921875 -11.078125 L 3.921875 -1.96875 L 7.125 -1.96875 C 8.40625 -1.96875 9.46875 -2.394531 10.3125 -3.25 C 11.164062 -4.101562 11.59375 -5.1875 11.59375 -6.5 C 11.59375 -7.820312 11.15625 -8.914062 10.28125 -9.78125 C 9.40625 -10.644531 8.320312 -11.078125 7.03125 -11.078125 Z M 3.921875 -11.078125 "/></g></g></g><g fill="#ffffff" fill-opacity="1"><g transform="translate(199.106552, 43.910272)"><g><path d="M 1.71875 -13.046875 L 7.0625 -13.046875 C 9.007812 -13.046875 10.617188 -12.429688 11.890625 -11.203125 C 13.171875 -9.972656 13.8125 -8.410156 13.8125 -6.515625 C 13.8125 -4.628906 13.171875 -3.070312 11.890625 -1.84375 C 10.609375 -0.613281 8.984375 0 7.015625 0 L 1.71875 0 Z M 3.921875 -11.078125 L 3.921875 -1.96875 L 7.125 -1.96875 C 8.40625 -1.96875 9.46875 -2.394531 10.3125 -3.25 C 11.164062 -4.101562 11.59375 -5.1875 11.59375 -6.5 C 11.59375 -7.820312 11.15625 -8.914062 10.28125 -9.78125 C 9.40625 -10.644531 8.320312 -11.078125 7.03125 -11.078125 Z M 3.921875 -11.078125 "/></g></g></g></svg>